<svg height="480pt" viewBox="0 0 480 480" width="480pt" xmlns="http://www.w3.org/2000/svg"><path d="m360 64h-16l-8 64h32zm0 0" fill="#e0e0e0"/><path d="m344 0h16v64h-16zm0 0" fill="#d3d3d3"/><path d="m336 176h32v72h-32zm0 0" fill="#e0e0e0"/><path d="m232 256h-16l-16 216h48zm0 0" fill="#e0e0e0"/><path d="m120 200-8-64h-16l-8 64-8 24h48zm0 0" fill="#e0e0e0"/><path d="m128 304h-48l8 32-8 136h48l-8-136zm0 0" fill="#e0e0e0"/><path d="m384 152c0 17.671875-14.328125 32-32 32s-32-14.328125-32-32 14.328125-32 32-32 32 14.328125 32 32zm0 0" fill="#5489a3"/><path d="m376 344h-48l8 32-8 96h48l-8-96zm0 0" fill="#e0e0e0"/><g fill="#c6dfe5"><path d="m216 48h-96c-13.601562 0-24-10.398438-24-24s10.398438-24 24-24h24v16h-24c-4.800781 0-8 3.199219-8 8s3.199219 8 8 8h96zm0 0"/><path d="m200 112h-24c-13.601562 0-24-10.398438-24-24s10.398438-24 24-24h80v16h-80c-4.800781 0-8 3.199219-8 8s3.199219 8 8 8h24zm0 0"/><path d="m232 32h16v16h-16zm0 0"/><path d="m272 64h16v16h-16zm0 0"/><path d="m440 112h-24c-13.601562 0-24-10.398438-24-24s10.398438-24 24-24h64v16h-64c-4.800781 0-8 3.199219-8 8s3.199219 8 8 8h24zm0 0"/><path d="m392 32h64v16h-64zm0 0"/></g><path d="m96 64h16v72h-16zm0 0" fill="#d3d3d3"/><path d="m216 128h16v128h-16zm0 0" fill="#d3d3d3"/><path d="m152 264c0 26.507812-21.492188 48-48 48s-48-21.492188-48-48 21.492188-48 48-48 48 21.492188 48 48zm0 0" fill="#5489a3"/><path d="m0 464h480v16h-480zm0 0" fill="#ccc"/><path d="m408 296c0 30.929688-25.070312 56-56 56s-56-25.070312-56-56 25.070312-56 56-56 56 25.070312 56 56zm0 0" fill="#5489a3"/><path d="m272 280h160v16h-160zm0 0" fill="#e0e0e0"/><path d="m376 376.800781 6.398438-24c20.800781-11.199219 33.601562-32.800781 33.601562-56.800781h16v-16h-18.398438c-4.800781-19.199219-19.203124-36-37.601562-43.199219v-52.800781c17.601562-12.800781 21.601562-37.601562 8-55.199219-2.398438-3.199219-5.601562-6.402343-8.800781-8.800781l-8-63.199219h-7.199219v-56.800781h-16v56h-7.199219l-8 63.199219c-17.601562 12.800781-22.402343 37.601562-9.601562 55.199219 2.402343 3.203124 5.601562 6.402343 8.800781 8.800781v52.800781c-18.398438 8-32.800781 24-37.601562 43.199219h-18.398438v16h16c0 24 12.800781 45.601562 33.601562 56.800781l6.398438 24-7.199219 88h-65.601562l-16-216h-7.199219v-120h-16v120h-7.199219l-16 216h-56.800781l-8-127.199219 6.398438-25.601562c25.601562-16.800781 33.601562-51.199219 16.800781-77.597657-4-6.402343-10.398438-12.800781-16.800781-16.800781l-6.398438-18.402343-8.800781-70.398438h-7.199219v-64h-16v64h-7.199219l-8.800781 70.398438-6.398438 19.203124c-25.601562 16-33.601562 50.398438-16.800781 76 4 7.199219 10.398438 12.796876 16.800781 16.796876l6.398438 25.601562-7.199219 128h-72.800781v16h480v-16h-96.800781zm-24.800781-304.800781h1.601562l4.800781 40.800781c-4-.800781-8-.800781-12 0zm.800781 56c13.601562 0 24 10.398438 24 24s-10.398438 24-24 24-24-10.398438-24-24 10.398438-24 24-24zm-8 63.199219c5.601562.800781 10.398438.800781 16 0v41.601562c-5.601562-.800781-10.398438-.800781-16 0zm8 56.800781c20 0 38.398438 12.800781 45.601562 32h-91.203124c7.203124-19.199219 25.601562-32 45.601562-32zm-48 48h96c0 26.398438-21.601562 48-48 48s-48-21.601562-48-48zm36 63.199219c8 1.601562 16 1.601562 24 0l-4 16 7.199219 88.800781h-30.398438l7.199219-87.199219v-1.601562zm-116.800781-95.199219h.800781l15.199219 200h-30.398438zm-127.199219-61.601562 7.199219-58.398438h1.601562l7.199219 56.800781 2.398438 8c-7.199219-1.601562-14.398438-1.601562-21.597657 0zm-32 61.601562c0-22.398438 17.601562-40 40-40s40 17.601562 40 40-17.601562 40-40 40-40-17.601562-40-40zm28 54.398438c8 1.601562 16 1.601562 24 0l-4 16.800781 7.199219 128.800781h-31.199219l8-128.800781zm0 0"/><path d="m120 48h96v-16h-96c-4.800781 0-8-3.199219-8-8s3.199219-8 8-8h24v-16h-24c-13.601562 0-24 10.398438-24 24s10.398438 24 24 24zm0 0"/><path d="m176 80h80v-16h-80c-13.601562 0-24 10.398438-24 24s10.398438 24 24 24h24v-16h-24c-4.800781 0-8-3.199219-8-8s3.199219-8 8-8zm0 0"/><path d="m232 32h16v16h-16zm0 0"/><path d="m272 64h16v16h-16zm0 0"/><path d="m416 64c-13.601562 0-24 10.398438-24 24s10.398438 24 24 24h24v-16h-24c-4.800781 0-8-3.199219-8-8s3.199219-8 8-8h64v-16zm0 0"/><path d="m392 32h64v16h-64zm0 0"/></svg>